HIERARCHY
ROOT Hips
{
	OFFSET 0.000000 93.594000 0.000000
	CHANNELS 6 Xposition Yposition Zposition Yrotation Xrotation Zrotation
	JOINT RightUpLeg
	{
		OFFSET -9.500000 -1.594000 0.000000
		CHANNELS 3 Yrotation Xrotation Zrotation
		JOINT RightLeg
		{
			OFFSET 0.000000 -42.000000 0.000000
			CHANNELS 3 Yrotation Xrotation Zrotation
			JOINT RightFoot
			{
				OFFSET 0.000000 -42.000000 0.000000
				CHANNELS 3 Yrotation Xrotation Zrotation
				End Site
				{
					OFFSET 0.000000 -8.000000 17.500000
				}
			}
		}
	}
	JOINT LeftUpLeg
	{
		OFFSET 9.500000 -1.594000 0.000000
		CHANNELS 3 Yrotation Xrotation Zrotation
		JOINT LeftLeg
		{
			OFFSET 0.000000 -42.000000 0.000000
			CHANNELS 3 Yrotation Xrotation Zrotation
			JOINT LeftFoot
			{
				OFFSET 0.000000 -42.000000 0.000000
				CHANNELS 3 Yrotation Xrotation Zrotation
				End Site
				{
					OFFSET 0.000000 -8.000000 17.500000
				}
			}
		}
	}
	JOINT Spine
	{
		OFFSET 0.000000 14.348000 0.000000
		CHANNELS 3 Yrotation Xrotation Zrotation
		JOINT Spine1
		{
			OFFSET 0.000000 9.746000 0.000000
			CHANNELS 3 Yrotation Xrotation Zrotation
			JOINT Spine2
			{
				OFFSET 0.000000 10.149000 0.000000
				CHANNELS 3 Yrotation Xrotation Zrotation
				JOINT Spine3
				{
					OFFSET 0.000000 9.746000 0.000000
					CHANNELS 3 Yrotation Xrotation Zrotation
					JOINT Neck
					{
						OFFSET 0.000000 10.417000 0.000000
						CHANNELS 3 Yrotation Xrotation Zrotation
						JOINT Head
						{
							OFFSET 0.000000 9.000000 0.000000
							CHANNELS 3 Yrotation Xrotation Zrotation
							End Site
							{
								OFFSET 0.000000 16.000000 0.000000
							}
						}
					}
					JOINT RightShoulder
					{
						OFFSET -3.200000 6.945000 0.000000
						CHANNELS 3 Yrotation Xrotation Zrotation
						JOINT RightArm
						{
							OFFSET -12.800000 0.000000 0.000000
							CHANNELS 3 Yrotation Xrotation Zrotation
							JOINT RightForeArm
							{
								OFFSET -27.000000 0.000000 0.000000
								CHANNELS 3 Yrotation Xrotation Zrotation
								JOINT RightHand
								{
									OFFSET -26.000000 0.000000 0.000000
									CHANNELS 3 Yrotation Xrotation Zrotation
									End Site
									{
										OFFSET -3.479000 0.532000 0.778000
									}
								}
							}
						}
					}
					JOINT LeftShoulder
					{
						OFFSET 3.200000 6.945000 0.000000
						CHANNELS 3 Yrotation Xrotation Zrotation
						JOINT LeftArm
						{
							OFFSET 12.800000 0.000000 0.000000
							CHANNELS 3 Yrotation Xrotation Zrotation
							JOINT LeftForeArm
							{
								OFFSET 27.000000 0.000000 0.000000
								CHANNELS 3 Yrotation Xrotation Zrotation
								JOINT LeftHand
								{
									OFFSET 26.000000 0.000000 0.000000
									CHANNELS 3 Yrotation Xrotation Zrotation
									End Site
									{
										OFFSET 3.479000 0.532000 0.778000
									}
								}
							}
						}
					}
				}
			}
		}
	}
}
MOTION
Frames: 27
Frame Time: 0.041667
51.53 92.73 12.99 173.75 14.04 -7.04 -35.47 -15.07 28.95 180.0 60.37 180.0 30.64 -22.41 63.89 24.46 -26.2 -6.08 -0.0 30.81 -0.0 16.5 -18.93 -2.74 -11.58 0.88 4.48 -2.91 0.28 1.13 -4.76 0.63 1.86 2.74 -0.53 -0.26 36.99 -0.1 -2.98 28.64 -4.58 -6.01 -19.95 -16.04 -0.08 -11.92 27.09 44.19 40.65 15.32 53.15 -1.44 20.16 39.87 -15.27 -13.34 -14.96 -45.92 -5.74 -22.06 -121.33 33.88 -45.21 3.07 31.79 29.53
51.54 92.73 12.98 173.7 13.94 -7.05 -35.41 -15.14 28.95 -180.0 60.23 -180.0 30.75 -22.47 63.85 24.4 -26.1 -6.01 0.0 30.81 0.0 16.43 -18.93 -2.57 -11.67 0.96 4.52 -2.93 0.3 1.14 -4.8 0.67 1.88 2.74 -0.53 -0.26 37.36 -0.09 -3.01 28.45 -4.5 -6.0 -19.84 -16.12 -0.11 -11.75 27.18 44.29 40.93 14.91 53.15 -0.12 20.14 41.03 -15.2 -13.45 -15.16 -46.18 -5.44 -22.28 -121.5 33.77 -45.14 3.2 31.84 29.7
51.55 92.73 12.96 173.68 13.85 -7.05 -35.34 -15.21 28.91 180.0 60.1 180.0 30.87 -22.5 63.77 24.41 -26.0 -5.97 0.0 30.79 0.0 16.39 -18.93 -2.42 -11.76 1.02 4.56 -2.95 0.32 1.15 -4.83 0.7 1.89 2.74 -0.53 -0.26 37.65 -0.08 -3.03 28.31 -4.42 -5.98 -19.75 -16.2 -0.12 -11.54 27.26 44.42 41.16 14.51 53.06 -0.05 20.17 41.28 -15.12 -13.55 -15.34 -46.39 -5.2 -22.52 -121.58 33.63 -45.07 3.34 31.88 29.88
51.58 92.72 12.93 173.68 13.77 -7.05 -35.2 -15.28 28.92 -180.0 60.03 180.0 30.86 -22.53 63.78 24.41 -25.94 -5.93 -0.0 30.82 0.0 16.27 -18.88 -1.92 -11.75 1.06 4.55 -2.95 0.33 1.15 -4.83 0.72 1.89 2.74 -0.52 -0.26 37.59 -0.08 -3.01 28.33 -4.4 -5.96 -19.83 -16.27 -0.02 -11.28 27.33 44.56 41.32 14.12 52.89 -0.01 20.19 41.48 -15.16 -13.64 -15.46 -46.59 -5.02 -22.78 -121.59 33.5 -45.04 3.48 31.92 30.08
51.57 92.72 12.92 173.71 13.69 -7.05 -35.12 -15.32 28.83 -180.0 59.96 -180.0 30.89 -22.49 63.7 24.36 -25.85 -5.91 -0.0 30.79 -0.0 16.24 -18.86 -1.71 -11.77 1.11 4.54 -2.96 0.34 1.15 -4.83 0.74 1.88 2.74 -0.52 -0.26 37.52 -0.09 -2.99 28.37 -4.37 -5.94 -19.88 -16.37 0.1 -11.0 27.4 44.68 41.43 13.74 52.68 0.02 20.21 41.6 -15.18 -13.72 -15.56 -46.69 -4.96 -22.96 -121.54 33.28 -45.03 3.61 31.95 30.28
51.57 92.72 12.9 173.76 13.62 -7.05 -34.99 -15.35 28.74 180.0 59.92 180.0 30.9 -22.47 63.64 24.28 -25.77 -5.88 0.0 30.77 -0.0 16.22 -18.83 -1.49 -12.03 1.16 4.62 -3.02 0.36 1.17 -4.94 0.77 1.92 2.75 -0.52 -0.27 38.26 -0.06 -3.05 27.99 -4.23 -5.93 -19.46 -16.55 0.05 -10.71 27.45 44.81 41.48 13.39 52.43 0.09 20.21 41.63 -14.75 -13.84 -15.81 -46.75 -4.94 -23.14 -121.45 33.11 -45.03 3.74 31.97 30.49
51.57 92.72 12.89 173.85 13.56 -7.04 -34.89 -15.36 28.59 180.0 59.88 180.0 30.97 -22.44 63.51 24.21 -25.69 -5.85 -0.0 30.72 0.0 16.16 -18.8 -1.28 -12.12 1.2 4.65 -3.05 0.37 1.18 -4.97 0.79 1.93 2.75 -0.52 -0.27 38.34 -0.06 -3.05 27.95 -4.17 -5.92 -19.33 -16.69 0.12 -10.43 27.47 44.92 41.47 13.08 52.14 0.12 20.2 41.58 -14.66 -13.91 -15.92 -46.77 -4.94 -23.28 -121.31 33.01 -45.0 3.85 32.0 30.68
51.56 92.72 12.87 173.95 13.5 -7.05 -34.73 -15.37 28.49 -180.0 59.88 -180.0 31.02 -22.45 63.44 24.14 -25.62 -5.82 0.0 30.69 0.0 16.09 -18.79 -1.08 -12.19 1.23 4.67 -3.06 0.38 1.19 -5.0 0.8 1.94 2.75 -0.52 -0.27 38.33 -0.06 -3.04 27.95 -4.11 -5.9 -19.2 -16.84 0.18 -10.17 27.47 45.05 41.43 12.82 51.81 0.15 20.18 41.48 -14.55 -13.95 -16.0 -46.83 -4.87 -23.32 -121.08 32.94 -44.82 3.95 32.02 30.84
51.55 92.72 12.86 174.07 13.44 -7.07 -34.58 -15.36 28.36 180.0 59.9 180.0 31.16 -22.47 63.33 24.03 -25.55 -5.77 0.0 30.65 0.0 16.03 -18.79 -0.88 -12.24 1.25 4.7 -3.08 0.39 1.19 -5.02 0.82 1.95 2.75 -0.51 -0.27 38.23 -0.06 -3.03 28.0 -4.07 -5.89 -19.05 -16.97 0.22 -9.96 27.46 45.16 41.37 12.59 51.45 0.19 20.17 41.33 -14.49 -13.98 -16.07 -46.89 -4.81 -23.34 -120.79 32.98 -44.63 4.01 32.04 30.96
51.55 92.72 12.85 174.22 13.4 -7.09 -34.4 -15.34 28.23 -180.0 59.93 -180.0 31.31 -22.52 63.25 23.9 -25.5 -5.71 -0.0 30.61 0.0 15.97 -18.78 -0.7 -12.33 1.29 4.72 -3.1 0.4 1.2 -5.06 0.84 1.96 2.75 -0.51 -0.27 38.2 -0.06 -3.03 28.01 -4.07 -5.89 -18.83 -17.14 0.26 -9.78 27.43 45.28 41.3 12.42 51.06 0.23 20.16 41.12 -14.29 -13.99 -16.13 -47.04 -4.84 -23.49 -120.52 33.16 -44.62 4.05 32.04 31.04
51.55 92.72 12.85 174.39 13.37 -7.12 -34.23 -15.32 28.08 -180.0 59.96 -180.0 31.49 -22.54 63.16 23.73 -25.48 -5.65 -0.0 30.57 -0.0 15.92 -18.77 -0.5 -12.43 1.32 4.75 -3.13 0.41 1.21 -5.1 0.86 1.98 2.75 -0.51 -0.27 38.18 -0.06 -3.03 28.02 -4.07 -5.9 -18.57 -17.3 0.32 -9.62 27.39 45.36 41.23 12.29 50.67 0.27 20.13 40.85 -14.07 -13.95 -16.18 -47.19 -4.92 -23.58 -120.23 33.4 -44.62 4.07 32.03 31.09
51.54 92.72 12.84 174.59 13.36 -7.15 -34.06 -15.29 27.94 180.0 59.99 180.0 31.63 -22.55 63.09 23.51 -25.48 -5.57 0.0 30.55 0.0 15.92 -18.75 -0.48 -12.33 1.27 4.78 -3.1 0.39 1.21 -5.06 0.84 1.99 2.74 -0.51 -0.27 37.51 -0.07 -2.97 28.34 -4.04 -5.89 -18.64 -17.39 0.37 -9.46 27.33 45.4 41.15 12.19 50.3 0.29 20.1 40.52 -14.2 -13.8 -16.25 -46.93 -5.21 -23.52 -120.8 33.08 -45.04 4.5 31.97 30.96
51.52 92.73 12.84 174.81 13.36 -7.18 -33.87 -15.28 27.8 180.0 60.01 180.0 31.75 -22.52 63.04 23.28 -25.49 -5.5 0.0 30.52 -0.0 15.89 -18.73 -0.44 -12.31 1.26 4.83 -3.09 0.39 1.23 -5.05 0.83 2.01 2.74 -0.51 -0.27 37.08 -0.08 -2.95 28.55 -4.04 -5.91 -18.58 -17.53 0.42 -9.29 27.23 45.41 41.05 12.14 49.96 0.34 20.06 40.13 -14.2 -13.67 -16.32 -46.94 -5.27 -23.38 -121.04 32.88 -45.12 4.96 31.92 30.74
51.52 92.74 12.83 175.06 13.36 -7.21 -33.69 -15.26 27.63 -180.0 60.06 180.0 31.86 -22.44 63.0 23.06 -25.48 -5.44 0.0 30.46 -0.0 15.81 -18.71 -0.21 -12.45 1.28 4.87 -3.13 0.4 1.24 -5.1 0.85 2.02 2.74 -0.51 -0.27 37.16 -0.08 -2.97 28.51 -4.07 -5.93 -18.24 -17.71 0.48 -9.14 27.1 45.38 40.48 11.95 49.9 0.42 20.45 39.35 -13.84 -13.54 -16.4 -47.01 -5.32 -23.2 -120.86 32.97 -45.0 5.05 31.9 30.58
51.53 92.74 12.8 175.34 13.38 -7.22 -33.52 -15.25 27.44 -180.0 60.12 -180.0 31.96 -22.34 62.93 22.83 -25.49 -5.38 0.0 30.42 -0.0 15.74 -18.69 0.0 -12.62 1.29 4.92 -3.17 0.4 1.25 -5.17 0.86 2.04 2.74 -0.52 -0.27 37.28 -0.07 -2.99 28.45 -4.1 -5.96 -17.85 -17.87 0.53 -9.0 26.94 45.33 39.88 11.75 49.88 0.46 20.86 38.52 -13.49 -13.4 -16.5 -47.04 -5.34 -22.95 -120.64 33.09 -44.86 5.12 31.86 30.41
51.57 92.72 12.77 175.64 13.4 -7.23 -33.35 -15.22 27.24 -180.0 60.2 -180.0 32.01 -22.2 62.82 22.74 -25.48 -5.37 -0.0 30.37 -0.0 15.46 -18.66 0.61 -12.62 1.26 4.96 -3.17 0.39 1.26 -5.17 0.85 2.06 2.73 -0.52 -0.27 36.88 -0.08 -2.98 28.65 -4.11 -6.0 -17.71 -17.99 0.57 -8.88 26.75 45.26 39.79 11.7 49.59 0.4 20.79 37.98 -13.34 -13.19 -16.58 -47.1 -5.4 -22.68 -118.91 34.35 -44.43 3.85 31.8 30.87
51.55 92.73 12.76 175.96 13.42 -7.23 -33.17 -15.18 27.03 180.0 60.29 180.0 32.04 -22.09 62.75 22.54 -25.47 -5.35 -0.0 30.3 -0.0 15.31 -18.63 0.82 -12.61 1.24 4.99 -3.17 0.39 1.27 -5.17 0.84 2.07 2.73 -0.52 -0.27 36.44 -0.09 -2.96 28.86 -4.13 -6.03 -17.55 -18.1 0.59 -8.78 26.54 45.19 39.63 11.66 49.33 0.29 20.67 37.46 -13.23 -12.97 -16.67 -47.09 -5.49 -22.33 -118.4 34.55 -44.26 3.78 31.73 30.82
51.53 92.73 12.77 176.31 13.44 -7.21 -32.99 -15.13 26.77 180.0 60.39 180.0 32.07 -21.97 62.64 22.36 -25.47 -5.35 0.0 30.22 0.0 15.11 -18.58 1.0 -12.07 1.14 4.97 -3.04 0.36 1.26 -4.95 0.78 2.06 2.7 -0.51 -0.27 34.19 -0.13 -2.79 29.91 -4.12 -6.06 -18.25 -18.1 0.67 -8.71 26.3 45.13 40.23 12.21 48.45 0.35 19.55 37.75 -13.88 -12.63 -16.67 -47.14 -5.63 -21.97 -117.84 34.7 -44.1 3.71 31.64 30.8
51.51 92.73 12.79 176.67 13.48 -7.18 -32.8 -15.1 26.46 180.0 60.51 180.0 32.1 -21.82 62.52 22.12 -25.46 -5.36 -0.0 30.12 -0.0 14.96 -18.53 1.18 -12.0 1.09 4.98 -3.02 0.34 1.26 -4.92 0.76 2.06 2.69 -0.5 -0.27 33.33 -0.14 -2.72 30.3 -4.12 -6.05 -18.18 -18.15 0.7 -8.65 26.05 45.04 39.9 12.25 48.12 0.31 19.43 37.2 -13.79 -12.34 -16.71 -47.09 -5.79 -21.58 -117.19 34.82 -43.91 3.64 31.54 30.79
51.49 92.74 12.8 177.03 13.51 -7.15 -32.56 -15.07 26.12 180.0 60.61 180.0 32.11 -21.67 62.38 21.88 -25.44 -5.37 0.0 30.01 0.0 14.8 -18.49 1.35 -11.92 1.03 4.97 -2.99 0.33 1.26 -4.89 0.73 2.06 2.68 -0.5 -0.27 32.6 -0.16 -2.66 30.63 -4.16 -6.07 -18.11 -18.2 0.74 -8.6 25.8 44.94 39.54 12.31 47.8 0.27 19.3 36.61 -13.7 -12.01 -16.75 -47.02 -5.94 -21.16 -116.46 34.93 -43.68 3.58 31.44 30.81
51.47 92.74 12.81 177.4 13.55 -7.12 -32.31 -15.04 25.75 -180.0 60.71 180.0 32.14 -21.48 62.17 21.67 -25.42 -5.38 0.0 29.89 0.0 14.62 -18.44 1.51 -11.82 0.96 4.97 -2.97 0.31 1.25 -4.85 0.69 2.06 2.67 -0.5 -0.26 31.83 -0.17 -2.6 30.97 -4.16 -6.06 -18.04 -18.23 0.75 -8.53 25.54 44.83 39.15 12.38 47.48 0.22 19.16 35.97 -13.6 -11.63 -16.81 -46.93 -6.07 -20.7 -115.67 35.09 -43.38 3.52 31.32 30.83
51.43 92.75 12.82 177.76 13.59 -7.11 -32.03 -15.02 25.4 -180.0 60.85 -180.0 32.15 -21.25 61.94 21.44 -25.41 -5.38 0.0 29.78 -0.0 14.43 -18.39 1.68 -12.03 0.96 5.01 -3.02 0.31 1.26 -4.94 0.7 2.07 2.68 -0.5 -0.27 32.38 -0.15 -2.67 30.73 -4.16 -6.13 -17.44 -18.35 0.73 -8.43 25.29 44.72 38.75 12.47 47.13 0.18 19.02 35.31 -12.88 -11.31 -16.91 -47.71 -6.17 -20.66 -114.0 35.91 -42.95 3.44 31.22 30.82
51.4 92.76 12.83 178.11 13.64 -7.1 -31.74 -15.01 25.03 180.0 60.99 180.0 32.16 -20.97 61.66 21.2 -25.41 -5.36 0.0 29.67 -0.0 14.25 -18.35 1.83 -12.24 0.95 5.06 -3.08 0.31 1.28 -5.02 0.71 2.09 2.68 -0.5 -0.27 32.58 -0.14 -2.7 30.64 -4.14 -6.15 -16.8 -18.48 0.69 -8.31 25.04 44.6 38.35 12.57 46.77 0.15 18.89 34.61 -12.18 -10.96 -17.03 -48.48 -6.27 -20.58 -112.23 36.81 -42.46 3.35 31.12 30.77
51.38 92.77 12.83 178.48 13.68 -7.12 -31.42 -14.99 24.65 180.0 61.15 180.0 32.12 -20.66 61.35 20.93 -25.42 -5.31 -0.0 29.56 0.0 14.1 -18.3 1.96 -11.44 0.73 5.0 -2.88 0.25 1.26 -4.7 0.58 2.06 2.64 -0.49 -0.27 29.83 -0.18 -2.45 31.83 -4.06 -6.1 -17.84 -18.3 0.77 -8.19 24.79 44.5 37.97 12.69 46.38 0.12 18.76 33.9 -13.07 -10.29 -16.98 -48.53 -6.43 -20.08 -111.18 37.21 -42.06 3.23 31.03 30.68
51.36 92.79 12.84 178.84 13.72 -7.12 -31.09 -14.98 24.27 180.0 61.32 180.0 32.06 -20.3 61.0 20.64 -25.42 -5.26 0.0 29.46 0.0 13.95 -18.26 2.09 -11.31 0.67 5.01 -2.84 0.23 1.26 -4.65 0.56 2.07 2.63 -0.48 -0.27 29.04 -0.19 -2.4 32.15 -4.03 -6.12 -17.74 -18.3 0.77 -8.09 24.49 44.38 37.58 12.83 45.96 0.1 18.63 33.17 -12.87 -9.82 -17.03 -48.49 -6.59 -19.54 -110.1 37.64 -41.64 3.1 30.94 30.53
51.32 92.8 12.85 179.17 13.75 -7.13 -30.7 -14.97 23.87 -180.0 61.48 -180.0 31.86 -19.95 60.7 20.4 -25.43 -5.23 0.0 29.39 0.0 13.84 -18.21 2.17 -11.51 0.67 5.06 -2.89 0.24 1.27 -4.73 0.57 2.09 2.63 -0.48 -0.27 29.2 -0.18 -2.42 32.08 -3.99 -6.15 -17.05 -18.33 0.72 -8.02 24.13 44.22 37.23 13.07 45.48 0.09 18.52 32.34 -12.15 -9.43 -17.12 -46.11 -6.91 -18.08 -111.3 36.68 -41.67 2.95 30.83 30.34
51.28 92.81 12.87 179.54 13.77 -7.14 -30.33 -14.93 23.44 180.0 61.7 180.0 31.65 -19.52 60.34 20.1 -25.44 -5.19 -0.0 29.32 0.0 13.74 -18.15 2.25 -11.72 0.69 5.12 -2.95 0.24 1.29 -4.82 0.58 2.11 2.63 -0.48 -0.27 29.37 -0.18 -2.45 32.01 -3.95 -6.17 -16.36 -18.34 0.69 -7.96 23.73 44.03 36.82 13.26 45.08 0.08 18.41 31.51 -11.44 -9.01 -17.24 -45.71 -7.16 -17.47 -110.3 37.05 -41.31 2.78 30.71 30.12
